<svg width="398" height="76" xmlns="http://www.w3.org/2000/svg" data-name="Layer 1">
 <g id="Layer_1">
  <title>Layer 1</title>


  <path fill="#ffde00" d="m72.10542,59.85524a1.6,1.6 0 0 0 -1.62,1.61a1.57,1.57 0 0 0 1.63,1.59a1.54,1.54 0 0 0 1.54,-1.59a1.58,1.58 0 0 0 -1.55,-1.61zm-8.07,3.55a1.61,1.61 0 1 0 1.59,1.62a1.57,1.57 0 0 0 -1.62,-1.62l0.03,0zm42.54,-0.27c-3.24,-5.09 -6.52,-10.15 -9.76,-15.24a2.22,2.22 0 0 1 -0.33,-1.12c0,-2.53 0,-5.06 0,-7.59a1,1 0 0 1 0.59,-1a3.63,3.63 0 0 0 1.71,-4a3.57,3.57 0 0 0 -3.17,-2.79c-1.14,-0.08 -2.3,-0.06 -3.44,-0.06c-2.36,0 -4.72,0 -7.08,0.05a3.55,3.55 0 0 0 -3.28,2.83a3.65,3.65 0 0 0 1.8,4a0.86,0.86 0 0 1 0.5,0.9a48.44,48.44 0 0 0 0,5a8,8 0 0 1 -1.79,6.08a27.4,27.4 0 0 0 -1.65,2.52a2.68,2.68 0 0 1 -0.21,-0.24q-3.9,-6 -7.78,-12.12a1.24,1.24 0 0 1 -0.16,-0.66c0,-3.51 0,-7 0,-10.52a0.65,0.65 0 0 1 0.46,-0.71a4.62,4.62 0 0 0 -2,-8.79l-12.46,0a4.63,4.63 0 0 0 -4.59,3.52a4.57,4.57 0 0 0 2.47,5.21a0.74,0.74 0 0 1 0.47,0.78q0,5.27 0,10.53a1.23,1.23 0 0 1 -0.11,0.61c-1.3,2 -2.61,4.07 -4,6.19l-0.28,-0.4q-5.72,-8.9 -11.43,-17.81a1.92,1.92 0 0 1 -0.24,-0.95c0,-4.87 0,-9.74 0,-14.61a0.85,0.85 0 0 1 0.61,-0.93a6.12,6.12 0 0 0 3.5,-7a6.19,6.19 0 0 0 -6.29,-4.81l-16.59,0a7.14,7.14 0 0 0 -1.46,0.12a6.17,6.17 0 0 0 -1.35,11.73a0.74,0.74 0 0 1 0.51,0.81c0,5 0,9.91 0,14.87a1.84,1.84 0 0 1 -0.26,0.88q-4.65,7.28 -9.33,14.54q-4.09,6.38 -8.19,12.76a11.39,11.39 0 0 0 1.65,14.72a11,11 0 0 0 7.91,3.11q19.82,0 39.61,0l49.69,0a7,7 0 0 0 1.51,-0.14a6.64,6.64 0 0 0 4.21,-10.27l0.03,0zm-22.61,-28.17a1.38,1.38 0 0 1 1.54,-1.39l9.55,0a1.41,1.41 0 0 1 1.55,1.39a1.47,1.47 0 0 1 -1.55,1.5l-9.55,0a1.44,1.44 0 0 1 -1.57,-1.5l0.03,0zm1.06,15.14a6.59,6.59 0 0 0 1.35,-4.56c-0.13,-2.05 0,-4.12 0,-6.18c0,-0.52 0.15,-0.69 0.68,-0.69q3.28,0 6.57,0c0.49,0 0.64,0.15 0.62,0.62a13,13 0 0 0 0,1.53c0,0.51 -0.19,0.67 -0.67,0.63a4.33,4.33 0 0 0 -1.08,0.06a1,1 0 0 0 -0.88,1.2a1,1 0 0 0 1,1c0.36,0 0.72,0 1.09,0s0.55,0.11 0.54,0.51c0,0.62 0,1.23 0,1.85c0,0.31 -0.11,0.47 -0.45,0.45a9.73,9.73 0 0 0 -1.08,0a1.11,1.11 0 0 0 -0.06,2.22c0.57,0 1.15,0 1.72,0a0.77,0.77 0 0 1 0.56,0.29c1.79,2.74 3.55,5.49 5.34,8.28a4.35,4.35 0 0 1 -2.21,1.18a7.79,7.79 0 0 1 -6,-0.75c-0.92,-0.53 -1.82,-1.1 -2.71,-1.68c-2,-1.31 -4,-2.68 -6.62,-2.08c0,-0.07 0,-0.13 0,-0.19c0.65,-1.21 1.37,-2.51 2.26,-3.69l0.03,0zm-28.23,-26.9a2,2 0 0 1 1.77,-1l12.3,0a2,2 0 0 1 2.09,2a2,2 0 0 1 -2.09,1.92c-2.06,0 -4.13,0 -6.19,0s-4.08,0 -6.11,0a2,2 0 0 1 -1.8,-2.92l0.03,0zm1.23,20.12a8,8 0 0 0 1.63,-5.5c-0.15,-2.71 0,-5.43 0,-8.16l0,-0.74l10.23,0l0,3.72c-0.69,0 -1.38,0 -2.07,0a1.35,1.35 0 0 0 -1.32,1.09a1.3,1.3 0 0 0 0.74,1.42a1.15,1.15 0 0 0 0.36,0.11a5.46,5.46 0 0 0 0.57,0c0.57,0 1.35,-0.13 1.63,0.18s0.12,1.08 0.13,1.64s0,1.28 0,2l-2,0a1.3,1.3 0 0 0 -1.46,1.33c0,0.8 0.56,1.29 1.48,1.3c0.68,0 1.37,0 2,0a1,1 0 0 1 0.71,0.37c2.26,3.46 4.47,6.93 6.72,10.38c0.24,0.37 0.13,0.56 -0.17,0.79a8.61,8.61 0 0 1 -4.52,1.52a10.87,10.87 0 0 1 -7,-2c-1.1,-0.69 -2.18,-1.41 -3.26,-2.12c-2.35,-1.57 -4.8,-2.76 -7.95,-1.93c1.22,-1.89 2.27,-3.72 3.52,-5.4l0.03,0zm-39.11,-37.27a2.81,2.81 0 0 1 2.33,-2.72a7.11,7.11 0 0 1 1.14,-0.1q8,0 15.94,0a5.92,5.92 0 0 1 1.39,0.15a2.83,2.83 0 0 1 2,3a2.78,2.78 0 0 1 -2.46,2.59a8.83,8.83 0 0 1 -0.89,0l-8,0c-2.78,0 -5.57,0 -8.35,0a2.88,2.88 0 0 1 -3.13,-2.92l0.03,0zm-1.81,32.23q2.75,-4.29 5.51,-8.57a3.07,3.07 0 0 0 0.52,-1.79c0,-4.93 0,-9.86 0,-14.79l0,-0.8c0.23,0 0.41,0 0.59,0c4.38,0 8.76,0 13.14,0c0.52,0 0.71,0.13 0.69,0.67c0,1.41 0,2.81 0,4.21c0,0.51 -0.12,0.73 -0.67,0.7c-0.77,-0.05 -1.53,0 -2.3,0a1.63,1.63 0 0 0 -1.78,1.58a1.68,1.68 0 0 0 1.68,1.72c0.79,0 1.58,0 2.36,0c0.55,0 0.69,0.18 0.68,0.7q0,2.07 0,4.14c0,0.51 -0.17,0.67 -0.66,0.65a22.06,22.06 0 0 0 -2.3,0a1.65,1.65 0 0 0 -1.72,1.39a1.59,1.59 0 0 0 1,1.84a2.29,2.29 0 0 0 0.74,0.11c1.07,0 2.13,0 3.19,0a0.94,0.94 0 0 1 0.67,0.33q4.86,7.49 9.66,15s0,0.08 0,0.18a10.19,10.19 0 0 1 -5.47,2.54a14.32,14.32 0 0 1 -10.47,-2.14c-2.4,-1.48 -4.76,-3 -7.16,-4.52a11.11,11.11 0 0 0 -8.55,-1.53a3.42,3.42 0 0 1 -0.46,0l1.11,-1.62zm26.48,31.86q-16,0 -32,0a8.14,8.14 0 0 1 -8.28,-8.33a7.61,7.61 0 0 1 1.2,-4c2.53,-4 5,-8 7.65,-11.89a7.29,7.29 0 0 1 4.38,-2.66a8.2,8.2 0 0 1 6.94,1c1.76,1.11 3.5,2.26 5.25,3.38a22.2,22.2 0 0 0 7.46,3.47c4.9,1 9.54,0.48 13.66,-2.66a0.48,0.48 0 0 1 0.16,-0.08l0.06,0c0.76,1 0.76,1 0.08,2.08c-2,3.14 -4,6.3 -6.07,9.43a8.44,8.44 0 0 0 -0.08,9.9a1.08,1.08 0 0 1 0.1,0.23l-0.51,0.13zm6.79,-0.1a3.41,3.41 0 0 1 -3.06,-0.55a6,6 0 0 1 -2.12,-3.87a5.74,5.74 0 0 1 1,-3.93c1.76,-2.7 3.48,-5.43 5.25,-8.13a11.17,11.17 0 0 1 1.18,-1.29c1.36,2.14 2.75,4.06 3.85,6.14a8.06,8.06 0 0 1 -6.12,11.63l0.02,0zm23.73,0.68l-17.56,0c0.4,-0.37 0.75,-0.67 1.06,-1a11.41,11.41 0 0 0 1.24,-13.8c-0.85,-1.35 -1.73,-2.68 -2.59,-4l-0.36,-0.59l-0.14,-0.23l0.2,0a8.07,8.07 0 0 1 2.06,0.33a38.46,38.46 0 0 1 3.62,2c1.58,0.92 3.07,2 4.7,2.8c4.2,2 8.34,1.68 12.49,-0.7l-2.86,4.44c-0.57,0.9 -1.13,1.81 -1.73,2.68a6.75,6.75 0 0 0 -0.13,8.07zm9.11,-2.43a5.76,5.76 0 0 1 -5.41,2.47a1.33,1.33 0 0 1 -0.59,-0.22a4.35,4.35 0 0 1 -1.56,-5.85c1.44,-2.4 3,-4.73 4.53,-7.09a2.21,2.21 0 0 1 0.3,-0.28c1.1,1.73 2.24,3.35 3.18,5.08a5.34,5.34 0 0 1 -0.47,5.89l0.02,0zm18.13,2.88c-1.68,0.05 -3.36,0 -5,0l-11.95,0a21.54,21.54 0 0 0 1.59,-2.39a8.17,8.17 0 0 0 -0.42,-8.37c-0.76,-1.22 -1.57,-2.42 -2.35,-3.64c-0.11,-0.17 -0.21,-0.35 -0.32,-0.56a3.92,3.92 0 0 1 3.1,0.48c1.17,0.7 2.29,1.46 3.44,2.19a12,12 0 0 0 4.71,2a9.62,9.62 0 0 0 7,-1.37l0.39,-0.22c1.2,1.9 2.4,3.78 3.56,5.68a3.35,3.35 0 0 1 0.32,1.09a4.4,4.4 0 0 1 -4.09,5.11l0.02,0zm-29.24,-11.32a1.6,1.6 0 0 0 -1.62,1.61a1.57,1.57 0 0 0 1.63,1.59a1.54,1.54 0 0 0 1.54,-1.59a1.58,1.58 0 0 0 -1.55,-1.61zm-8.07,3.55a1.61,1.61 0 1 0 1.59,1.62a1.57,1.57 0 0 0 -1.62,-1.62l0.03,0z" class="cls-2"/>
  <path fill="#ffde00" d="m31.52542,62.03524a2.14,2.14 0 1 1 -4.28,0a2.18,2.18 0 0 1 2.17,-2.2a2.15,2.15 0 0 1 2.11,2.2z" class="cls-2"/>
  <path fill="#ffde00" d="m41.76542,55.97524a2.12,2.12 0 0 1 2.11,2.17a2.16,2.16 0 0 1 -2.2,2.11a2.19,2.19 0 0 1 -2.15,-2.16a2.16,2.16 0 0 1 2.24,-2.12z" class="cls-2"/>
  <path fill="#ffde00" d="m17.16542,51.76524a2.15,2.15 0 0 1 0,4.29a2.15,2.15 0 1 1 0,-4.29z" class="cls-2"/>
  <path fill="#ffde00" d="m73.62542,61.49524a1.54,1.54 0 0 1 -1.54,1.59a1.57,1.57 0 0 1 -1.63,-1.59a1.6,1.6 0 0 1 1.62,-1.61a1.58,1.58 0 0 1 1.55,1.61z" class="cls-2"/>
  <path fill="#ffde00" d="m65.59542,65.02524a1.57,1.57 0 1 1 -1.59,-1.62a1.57,1.57 0 0 1 1.59,1.62z" class="cls-2"/>
  <path fill="#ffde00" d="m96.75542,63.28524a1.3,1.3 0 0 1 1.23,1.29a1.23,1.23 0 0 1 -1.28,1.21a1.2,1.2 0 0 1 -1.21,-1.26a1.25,1.25 0 0 1 1.26,-1.24z" class="cls-2"/>
  <path fill="#ffde00" d="m90.96542,66.78524a1.24,1.24 0 1 1 -2.48,0a1.24,1.24 0 0 1 2.48,0z" class="cls-2"/>
  <path fill="#fff" d="m124.15542,52.70524l0,-28.85l12.95,0a10.5,10.5 0 0 1 5.38,1.18a7,7 0 0 1 2.85,2.94a7.83,7.83 0 0 1 0.87,3.5a6.9,6.9 0 0 1 -1.17,4.3a7.4,7.4 0 0 1 -2.71,2.2a9.38,9.38 0 0 1 2.47,1.24a7.07,7.07 0 0 1 2.07,2.29a7.17,7.17 0 0 1 0.82,3.61a6.92,6.92 0 0 1 -2.46,5.41q-2.46,2.18 -7.38,2.18l-13.69,0zm3.27,-15.95l9.68,0a7.72,7.72 0 0 0 2.85,-0.53a4.81,4.81 0 0 0 2.15,-1.63a4.65,4.65 0 0 0 0.82,-2.85a5.09,5.09 0 0 0 -0.54,-2.31a4.21,4.21 0 0 0 -1.74,-1.79a6.42,6.42 0 0 0 -3.21,-0.7l-10,0l-0.01,9.81zm0,12.85l10.76,0a7.45,7.45 0 0 0 4.6,-1.24a4.16,4.16 0 0 0 1.64,-3.51a4.92,4.92 0 0 0 -1.57,-3.59q-1.58,-1.54 -5,-1.55l-10.43,0l0,9.89z" class="cls-3"/>
  <path fill="#fff" d="m159.45542,52.70524l0,-28.85l13.81,0a10,10 0 0 1 7.09,2.44a8.56,8.56 0 0 1 2.63,6.58a8,8 0 0 1 -1.07,4.44a7.06,7.06 0 0 1 -2.68,2.51a13.76,13.76 0 0 1 -3.22,1.24l7.58,11.64l-3.88,0l-7,-11.07l-10,0l0,11.07l-3.26,0zm3.27,-14.21l10,0a11.16,11.16 0 0 0 3.18,-0.48a5.72,5.72 0 0 0 2.72,-1.72a5,5 0 0 0 1.11,-3.46a5.39,5.39 0 0 0 -1.87,-4.34a7.43,7.43 0 0 0 -5,-1.59l-10.14,0l0,11.59z" class="cls-3"/>
  <path fill="#fff" d="m195.10542,52.70524l0,-28.85l21.23,0l0,3.14l-18,0l0,9.67l16,0l0,3.18l-16,0l0,9.72l18,0l0,3.14l-21.23,0z" class="cls-3"/>
  <path fill="#fff" d="m233.84542,52.70524l-9,-28.85l3.44,0l7.41,24.23l7.76,-24.23l3.75,0l7.75,24.23l7.41,-24.23l3.44,0l-9,28.85l-3.7,0l-7.76,-24.21l-7.8,24.23l-3.7,-0.02z" class="cls-3"/>
  <path fill="#fff" d="m276.19542,52.70524l0,-28.85l3.27,0l0,25.71l15.73,0l0,3.14l-19,0z" class="cls-3"/>
  <path fill="#fff" d="m302.47542,52.70524l12.25,-28.85l4.09,0l12.29,28.85l-3.62,0l-3.53,-8.37l-14.33,0l-3.52,8.37l-3.63,0zm8.41,-11.38l11.77,0l-5.89,-14.07l-5.88,14.07z" class="cls-3"/>
  <path fill="#fff" d="m341.17542,52.70524l0,-28.85l12.93,0a10.45,10.45 0 0 1 5.38,1.18a7.07,7.07 0 0 1 2.86,2.94a7.83,7.83 0 0 1 0.87,3.5a6.83,6.83 0 0 1 -1.18,4.3a7.29,7.29 0 0 1 -2.7,2.2a9.48,9.48 0 0 1 2.46,1.24a6.85,6.85 0 0 1 2.07,2.29a7.17,7.17 0 0 1 0.83,3.61a6.92,6.92 0 0 1 -2.46,5.41c-1.64,1.45 -4.11,2.18 -7.39,2.18l-13.67,0zm3.27,-15.95l9.66,0a7.73,7.73 0 0 0 2.86,-0.53a4.78,4.78 0 0 0 2.14,-1.63a4.65,4.65 0 0 0 0.83,-2.85a5.09,5.09 0 0 0 -0.54,-2.31a4.3,4.3 0 0 0 -1.75,-1.79a6.38,6.38 0 0 0 -3.2,-0.7l-10,0l0,9.81zm0,12.85l10.76,0a7.45,7.45 0 0 0 4.6,-1.24a4.15,4.15 0 0 0 1.63,-3.51a4.88,4.88 0 0 0 -1.57,-3.59q-1.56,-1.54 -5,-1.55l-10.42,0l0,9.89z" class="cls-3"/>
  <path fill="#fff" d="m386.79542,53.05524a17.62,17.62 0 0 1 -6.93,-1.16a8.72,8.72 0 0 1 -4,-3.2a9.93,9.93 0 0 1 -1.55,-4.62l3.4,0a5.13,5.13 0 0 0 1.39,3.42a7.73,7.73 0 0 0 3.34,1.89a16,16 0 0 0 4.55,0.61a11.31,11.31 0 0 0 5.8,-1.28a4.19,4.19 0 0 0 2.13,-3.82a3.13,3.13 0 0 0 -1.06,-2.46a8.66,8.66 0 0 0 -2.84,-1.55c-1.17,-0.4 -2.46,-0.77 -3.85,-1.11s-2.8,-0.69 -4.21,-1.06a21.38,21.38 0 0 1 -3.88,-1.44a8,8 0 0 1 -2.83,-2.25a5.54,5.54 0 0 1 -1.05,-3.53a7.07,7.07 0 0 1 2.73,-5.75q2.71,-2.25 8.17,-2.25a15.16,15.16 0 0 1 6.32,1.15a8.74,8.74 0 0 1 3.73,3a8.11,8.11 0 0 1 1.37,4.06l-3.42,0a5.41,5.41 0 0 0 -2.17,-3.69q-1.92,-1.5 -5.89,-1.5a13.48,13.48 0 0 0 -4,0.48a5.86,5.86 0 0 0 -2.33,1.24a4,4 0 0 0 -1.09,1.59a4.85,4.85 0 0 0 -0.29,1.57a2.89,2.89 0 0 0 1.07,2.33a8.55,8.55 0 0 0 2.83,1.48a38.73,38.73 0 0 0 3.9,1.07c1.43,0.32 2.84,0.68 4.25,1.07a21.42,21.42 0 0 1 3.88,1.48a8.1,8.1 0 0 1 2.83,2.29a5.66,5.66 0 0 1 1.07,3.57a7.11,7.11 0 0 1 -3.05,6.17q-3.01,2.2 -8.32,2.2z" class="cls-3"/>
  <path fill="#fff" d="m124.10542,72.65524l0,-11.16l1.26,0l0,11.15l-1.26,0.01z" class="cls-3"/>
  <path fill="#fff" d="m127.86542,72.65524l0,-8.42l1.24,0l0,1.31a4.37,4.37 0 0 1 1.12,-1a3.08,3.08 0 0 1 1.68,-0.43a3.4,3.4 0 0 1 1.65,0.42a3.12,3.12 0 0 1 1.24,1.23a3.88,3.88 0 0 1 0.48,2l0,4.9l-1.26,0l0,-4.87a2.58,2.58 0 0 0 -0.66,-1.84a2.21,2.21 0 0 0 -1.7,-0.7a2.61,2.61 0 0 0 -1.28,0.32a2.41,2.41 0 0 0 -0.92,0.9a2.6,2.6 0 0 0 -0.35,1.34l0,4.85l-1.24,-0.01z" class="cls-3"/>
  <path fill="#fff" d="m138.02542,72.65524l0,-7.31l-1.45,0l0,-1.11l1.45,0l0,-0.74a2.56,2.56 0 0 1 0.84,-2.08a3.45,3.45 0 0 1 2.28,-0.69l0.1,0l0,1.2l-0.14,0a1.94,1.94 0 0 0 -1.33,0.4a1.59,1.59 0 0 0 -0.45,1.27l0,0.64l1.95,0l0,1.11l-1.95,0l0,7.31l-1.3,0z" class="cls-3"/>
  <path fill="#fff" d="m146.16542,72.79524a4.13,4.13 0 0 1 -2.22,-0.58a3.87,3.87 0 0 1 -1.45,-1.58a5,5 0 0 1 0,-4.39a3.82,3.82 0 0 1 1.45,-1.56a4.49,4.49 0 0 1 4.45,0a3.8,3.8 0 0 1 1.44,1.56a5,5 0 0 1 0,4.39a3.85,3.85 0 0 1 -1.44,1.58a4.09,4.09 0 0 1 -2.23,0.58zm0,-1.15a2.71,2.71 0 0 0 1.59,-0.44a2.76,2.76 0 0 0 1,-1.17a3.91,3.91 0 0 0 0,-3.19a2.85,2.85 0 0 0 -5.16,0a4,4 0 0 0 0,3.19a2.78,2.78 0 0 0 1,1.17a2.7,2.7 0 0 0 1.57,0.44z" class="cls-3"/>
  <path fill="#fff" d="m152.10542,72.65524l0,-8.42l1.26,0l0,2.07a4.11,4.11 0 0 1 0.26,-0.58a3.29,3.29 0 0 1 1.5,-1.36a3.08,3.08 0 0 1 1.34,-0.27l0.09,0l0,1.27l-0.16,0a2.61,2.61 0 0 0 -1.62,0.51a3.28,3.28 0 0 0 -1.05,1.33a4.32,4.32 0 0 0 -0.36,1.75l0,3.7l-1.26,0z" class="cls-3"/>
  <path fill="#fff" d="m157.92542,72.65524l0,-8.42l1.26,0l0,1.26a3.26,3.26 0 0 1 0.91,-1a2.79,2.79 0 0 1 1.66,-0.46a2.83,2.83 0 0 1 1.55,0.45a3.07,3.07 0 0 1 1.13,1.26a3.36,3.36 0 0 1 0.53,-0.69a3.11,3.11 0 0 1 0.95,-0.71a3.06,3.06 0 0 1 1.41,-0.31a2.94,2.94 0 0 1 1.52,0.43a3.16,3.16 0 0 1 1.15,1.2a3.65,3.65 0 0 1 0.45,1.85l0,5.08l-1.26,0l0,-5.05a2.41,2.41 0 0 0 -0.6,-1.71a2,2 0 0 0 -1.49,-0.65a2.23,2.23 0 0 0 -2.28,2.38l0,5l-1.26,0l0,-5.05a2.41,2.41 0 0 0 -0.6,-1.71a2,2 0 0 0 -1.49,-0.65a2.23,2.23 0 0 0 -2.28,2.38l0,5l-1.26,0.12z" class="cls-3"/>
  <path fill="#fff" d="m176.15542,72.79524a3.93,3.93 0 0 1 -2.15,-0.58a4,4 0 0 1 -1.42,-1.58a5,5 0 0 1 0,-4.39a3.89,3.89 0 0 1 3.57,-2.15a3.74,3.74 0 0 1 1.8,0.41a3.46,3.46 0 0 1 1.22,1.09l0,-1.36l1.26,0l0,8.42l-1.26,0l0,-1.34a3.5,3.5 0 0 1 -1.22,1.07a3.74,3.74 0 0 1 -1.8,0.41zm0.17,-1.15a2.71,2.71 0 0 0 1.59,-0.44a2.76,2.76 0 0 0 1,-1.17a3.91,3.91 0 0 0 0,-3.19a2.71,2.71 0 0 0 -2.58,-1.6a2.82,2.82 0 0 0 -2.63,1.6a3.81,3.81 0 0 0 0,3.19a2.85,2.85 0 0 0 1,1.17a2.8,2.8 0 0 0 1.62,0.44z" class="cls-3"/>
  <path fill="#fff" d="m183.58542,72.65524l0,-7.31l-1.72,0l0,-1.11l1.72,0l0,-3l1.27,0l0,3l1.93,0l0,1.11l-1.93,0l0,7.31l-1.27,0z" class="cls-3"/>
  <path fill="#fff" d="m188.17542,62.81524l0,-1.65l1.36,0l0,1.65l-1.36,0zm0.05,9.84l0,-8.42l1.26,0l0,8.42l-1.26,0z" class="cls-3"/>
  <path fill="#fff" d="m194.01542,72.65524l-3.3,-8.42l1.39,0l2.66,7.08l2.65,-7.08l1.38,0l-3.28,8.42l-1.5,0z" class="cls-3"/>
  <path fill="#fff" d="m203.58542,72.79524a4.22,4.22 0 0 1 -2.24,-0.58a4,4 0 0 1 -1.49,-1.58a4.6,4.6 0 0 1 -0.53,-2.19a4.72,4.72 0 0 1 0.51,-2.2a3.87,3.87 0 0 1 1.44,-1.56a4.51,4.51 0 0 1 4.46,0a3.94,3.94 0 0 1 1.44,1.56a4.72,4.72 0 0 1 0.51,2.2l0,0.51l-7.06,0a3.52,3.52 0 0 0 0.48,1.35a2.74,2.74 0 0 0 1,1a3,3 0 0 0 1.48,0.36a2.75,2.75 0 0 0 1.5,-0.39a2.86,2.86 0 0 0 0.94,-1l1.38,0a4,4 0 0 1 -1.39,1.84a3.94,3.94 0 0 1 -2.43,0.68zm-3,-5l5.73,0a3.11,3.11 0 0 0 -0.91,-1.81a3,3 0 0 0 -3.9,0a3.31,3.31 0 0 0 -0.87,1.79l-0.05,0.02z" class="cls-3"/>
  <path fill="#fff" d="m215.95542,72.65524l0,-10l-3.85,0l0,-1.16l9,0l0,1.2l-3.9,0l0,10l-1.25,-0.04z" class="cls-3"/>
  <path fill="#fff" d="m221.34542,72.65524l0,-8.42l1.27,0l0,2.07a3.2,3.2 0 0 1 0.26,-0.58a3,3 0 0 1 0.56,-0.73a3.1,3.1 0 0 1 0.94,-0.63a3,3 0 0 1 1.34,-0.27l0.08,0l0,1.27l-0.15,0a2.66,2.66 0 0 0 -1.63,0.51a3.35,3.35 0 0 0 -1,1.33a4.32,4.32 0 0 0 -0.36,1.75l0,3.7l-1.31,0z" class="cls-3"/>
  <path fill="#fff" d="m230.49542,72.79524a3.46,3.46 0 0 1 -1.63,-0.41a3.23,3.23 0 0 1 -1.26,-1.23a4,4 0 0 1 -0.48,-2l0,-4.9l1.27,0l0,4.87a2.56,2.56 0 0 0 0.66,1.84a2.22,2.22 0 0 0 1.69,0.7a2.55,2.55 0 0 0 1.29,-0.33a2.45,2.45 0 0 0 0.91,-0.9a2.51,2.51 0 0 0 0.35,-1.33l0,-4.85l1.26,0l0,8.42l-1.26,0l0,-1.31a4.21,4.21 0 0 1 -1.11,1a3.09,3.09 0 0 1 -1.69,0.43z" class="cls-3"/>
  <path fill="#fff" d="m239.86542,72.79524a4.45,4.45 0 0 1 -2,-0.39a3,3 0 0 1 -1.22,-1a2.76,2.76 0 0 1 -0.48,-1.37l1.32,0a2,2 0 0 0 0.29,0.82a1.91,1.91 0 0 0 0.75,0.64a3.12,3.12 0 0 0 1.32,0.24a5.45,5.45 0 0 0 0.62,-0.05a2.94,2.94 0 0 0 0.72,-0.19a1.47,1.47 0 0 0 0.58,-0.4a1,1 0 0 0 0.23,-0.69a0.93,0.93 0 0 0 -0.4,-0.81a3.19,3.19 0 0 0 -1,-0.45c-0.42,-0.1 -0.87,-0.21 -1.35,-0.31a9.35,9.35 0 0 1 -1.36,-0.39a2.79,2.79 0 0 1 -1,-0.69a1.77,1.77 0 0 1 -0.41,-1.23a2.08,2.08 0 0 1 0.84,-1.77a4,4 0 0 1 2.47,-0.64a4.11,4.11 0 0 1 1.81,0.35a2.67,2.67 0 0 1 1.06,0.88a2.64,2.64 0 0 1 0.43,1.17l-1.28,0a1.44,1.44 0 0 0 -0.53,-0.93a2.38,2.38 0 0 0 -1.53,-0.39c-1.34,0 -2,0.41 -2,1.22a0.87,0.87 0 0 0 0.4,0.77a3.42,3.42 0 0 0 1.05,0.43q0.63,0.16 1.35,0.3a8.26,8.26 0 0 1 1.36,0.4a2.62,2.62 0 0 1 1,0.72a1.81,1.81 0 0 1 0.41,1.25a2.13,2.13 0 0 1 -0.94,1.88a4.33,4.33 0 0 1 -2.51,0.63z" class="cls-3"/>
  <path fill="#fff" d="m245.88542,72.65524l0,-7.31l-1.72,0l0,-1.11l1.72,0l0,-3l1.22,0l0,3l2,0l0,1.11l-2,0l0,7.31l-1.22,0z" class="cls-3"/>
  <path fill="#fff" d="m252.10542,72.65524l-2.64,-8.42l1.35,0l2,6.86l2.14,-6.86l1.38,0l2.14,6.86l2,-6.86l1.35,0l-2.65,8.42l-1.37,0l-2.1,-6.72l-2.11,6.72l-1.49,0z" class="cls-3"/>
  <path fill="#fff" d="m266.62542,72.79524a4.14,4.14 0 0 1 -2.23,-0.58a3.94,3.94 0 0 1 -1.45,-1.58a5.07,5.07 0 0 1 0,-4.39a3.89,3.89 0 0 1 1.45,-1.56a4.51,4.51 0 0 1 4.46,0a3.94,3.94 0 0 1 1.44,1.56a5,5 0 0 1 0,4.39a4,4 0 0 1 -1.44,1.58a4.12,4.12 0 0 1 -2.23,0.58zm0,-1.15a2.71,2.71 0 0 0 1.59,-0.44a2.83,2.83 0 0 0 1,-1.17a4,4 0 0 0 0,-3.19a2.87,2.87 0 0 0 -1,-1.16a2.78,2.78 0 0 0 -1.59,-0.44a2.83,2.83 0 0 0 -1.59,0.44a2.72,2.72 0 0 0 -1,1.16a3.91,3.91 0 0 0 0,3.19a2.69,2.69 0 0 0 1,1.17a2.75,2.75 0 0 0 1.59,0.44z" class="cls-3"/>
  <path fill="#fff" d="m272.51542,72.65524l0,-8.42l1.27,0l0,2.07a3.2,3.2 0 0 1 0.26,-0.58a3.24,3.24 0 0 1 0.56,-0.73a3.21,3.21 0 0 1 2.28,-0.9l0.08,0l0,1.27l-0.15,0a2.66,2.66 0 0 0 -1.63,0.51a3.35,3.35 0 0 0 -1,1.33a4.32,4.32 0 0 0 -0.36,1.75l0,3.7l-1.31,0z" class="cls-3"/>
  <path fill="#fff" d="m279.29542,72.65524l0,-7.31l-1.72,0l0,-1.11l1.72,0l0,-3l1.26,0l0,3l1.94,0l0,1.11l-1.94,0l0,7.31l-1.26,0z" class="cls-3"/>
  <path fill="#fff" d="m283.92542,72.65524l0,-11.79l1.27,0l0,4.68a4.17,4.17 0 0 1 1.11,-1a3.08,3.08 0 0 1 1.68,-0.43a3.4,3.4 0 0 1 1.65,0.42a3.12,3.12 0 0 1 1.24,1.23a3.88,3.88 0 0 1 0.48,2l0,4.9l-1.25,0l0,-4.87a2.58,2.58 0 0 0 -0.66,-1.84a2.21,2.21 0 0 0 -1.7,-0.7a2.61,2.61 0 0 0 -1.28,0.32a2.41,2.41 0 0 0 -0.92,0.9a2.59,2.59 0 0 0 -0.34,1.34l0,4.85l-1.28,-0.01z" class="cls-3"/>
  <path fill="#fff" d="m294.17542,75.99524l1.53,-3.45l-3.44,-8.31l1.4,0l2.71,6.91l2.77,-6.91l1.38,0l-5,11.76l-1.35,0z" class="cls-3"/>
  <path fill="#fff" d="m305.62542,72.65524l0,-11.16l8.21,0l0,1.21l-6.94,0l0,3.79l6.21,0l0,1.23l-6.2,0l0,3.77l6.94,0l0,1.21l-8.22,-0.05z" class="cls-3"/>
  <path fill="#fff" d="m314.62542,72.65524l3.25,-4.34l-3,-4.08l1.62,0l2.17,3.18l2.16,-3.18l1.62,0l-3.05,4.08l3.27,4.34l-1.62,0l-2.38,-3.43l-2.39,3.43l-1.65,0z" class="cls-3"/>
  <path fill="#fff" d="m323.82542,75.99524l0,-11.76l1.28,0l0,1.35a3.4,3.4 0 0 1 1.23,-1.09a3.82,3.82 0 0 1 1.79,-0.4a3.89,3.89 0 0 1 3.57,2.15a5,5 0 0 1 0,4.39a3.84,3.84 0 0 1 -3.59,2.16a3.52,3.52 0 0 1 -3,-1.5l0,4.7l-1.28,0zm4.11,-4.35a2.79,2.79 0 0 0 1.61,-0.44a2.76,2.76 0 0 0 1,-1.17a3.71,3.71 0 0 0 0,-3.19a2.79,2.79 0 0 0 -1,-1.16a2.87,2.87 0 0 0 -1.61,-0.44a2.74,2.74 0 0 0 -2.58,1.6a4,4 0 0 0 0,3.19a2.78,2.78 0 0 0 1,1.17a2.72,2.72 0 0 0 1.58,0.44z" class="cls-3"/>
  <path fill="#fff" d="m337.64542,72.79524a4.2,4.2 0 0 1 -2.24,-0.58a4.14,4.14 0 0 1 -1.5,-1.58a4.6,4.6 0 0 1 -0.53,-2.19a4.72,4.72 0 0 1 0.51,-2.2a3.89,3.89 0 0 1 1.45,-1.56a4.51,4.51 0 0 1 4.46,0a3.94,3.94 0 0 1 1.44,1.56a4.84,4.84 0 0 1 0.5,2.2l0,0.51l-7.06,0a3.52,3.52 0 0 0 0.48,1.35a2.74,2.74 0 0 0 1,1a3,3 0 0 0 1.48,0.36a2.7,2.7 0 0 0 1.5,-0.39a2.89,2.89 0 0 0 0.95,-1l1.38,0a4.11,4.11 0 0 1 -1.39,1.84a4,4 0 0 1 -2.43,0.68zm-3,-5l5.73,0a3.17,3.17 0 0 0 -0.91,-1.81a2.71,2.71 0 0 0 -2,-0.72a2.64,2.64 0 0 0 -1.94,0.72a3.25,3.25 0 0 0 -0.83,1.79l-0.05,0.02z" class="cls-3"/>
  <path fill="#fff" d="m343.33542,72.65524l0,-8.42l1.27,0l0,2.07a3.2,3.2 0 0 1 0.26,-0.58a3.24,3.24 0 0 1 0.56,-0.73a3.1,3.1 0 0 1 0.94,-0.63a3,3 0 0 1 1.34,-0.27l0.08,0l0,1.27l-0.15,0a2.66,2.66 0 0 0 -1.63,0.51a3.35,3.35 0 0 0 -1,1.33a4.32,4.32 0 0 0 -0.36,1.75l0,3.7l-1.31,0z" class="cls-3"/>
  <path fill="#fff" d="m349.15542,62.81524l0,-1.65l1.36,0l0,1.65l-1.36,0zm0.05,9.84l0,-8.42l1.26,0l0,8.42l-1.26,0z" class="cls-3"/>
  <path fill="#fff" d="m356.44542,72.79524a4.22,4.22 0 0 1 -2.24,-0.58a4,4 0 0 1 -1.49,-1.58a4.49,4.49 0 0 1 -0.53,-2.19a4.84,4.84 0 0 1 0.5,-2.2a3.89,3.89 0 0 1 1.45,-1.56a4.51,4.51 0 0 1 4.46,0a3.94,3.94 0 0 1 1.44,1.56a4.72,4.72 0 0 1 0.51,2.2l0,0.51l-7.06,0a3.22,3.22 0 0 0 0.48,1.35a2.74,2.74 0 0 0 1,1a3,3 0 0 0 1.48,0.36a2.75,2.75 0 0 0 1.5,-0.39a2.86,2.86 0 0 0 0.94,-1l1.38,0a4,4 0 0 1 -1.39,1.84a3.94,3.94 0 0 1 -2.43,0.68zm-2.95,-5l5.73,0a3.11,3.11 0 0 0 -0.91,-1.81a3,3 0 0 0 -3.9,0a3.31,3.31 0 0 0 -0.92,1.79l0,0.02z" class="cls-3"/>
  <path fill="#fff" d="m362.10542,72.65524l0,-8.42l1.26,0l0,1.31a4.17,4.17 0 0 1 1.11,-1a3.09,3.09 0 0 1 1.69,-0.43a3.36,3.36 0 0 1 1.64,0.42a3.14,3.14 0 0 1 1.25,1.23a3.88,3.88 0 0 1 0.48,2l0,4.9l-1.23,0l0,-4.87a2.62,2.62 0 0 0 -0.65,-1.84a2.23,2.23 0 0 0 -1.71,-0.7a2.64,2.64 0 0 0 -1.28,0.32a2.38,2.38 0 0 0 -0.91,0.9a2.6,2.6 0 0 0 -0.35,1.34l0,4.85l-1.3,-0.01z" class="cls-3"/>
  <path fill="#fff" d="m375.35542,72.79524a3.9,3.9 0 0 1 -3.63,-2.16a4.89,4.89 0 0 1 0,-4.39a3.94,3.94 0 0 1 1.44,-1.56a4,4 0 0 1 2.19,-0.59a4.16,4.16 0 0 1 2.55,0.78a3.76,3.76 0 0 1 1.42,2l-1.36,0a2.66,2.66 0 0 0 -0.92,-1.18a2.56,2.56 0 0 0 -1.53,-0.45a3,3 0 0 0 -1.61,0.44a2.89,2.89 0 0 0 -1.06,1.16a3.54,3.54 0 0 0 0,3.19a2.85,2.85 0 0 0 1.06,1.17a2.88,2.88 0 0 0 1.61,0.44a2.56,2.56 0 0 0 1.53,-0.45a2.66,2.66 0 0 0 0.92,-1.18l1.36,0a3.72,3.72 0 0 1 -1.42,2a4.16,4.16 0 0 1 -2.55,0.78z" class="cls-3"/>
  <path fill="#fff" d="m384.68542,72.79524a4.22,4.22 0 0 1 -2.24,-0.58a4,4 0 0 1 -1.49,-1.58a4.6,4.6 0 0 1 -0.53,-2.19a4.84,4.84 0 0 1 0.5,-2.2a3.89,3.89 0 0 1 1.45,-1.56a4.51,4.51 0 0 1 4.46,0a3.94,3.94 0 0 1 1.44,1.56a4.72,4.72 0 0 1 0.51,2.2l0,0.51l-7.06,0a3.22,3.22 0 0 0 0.48,1.35a2.74,2.74 0 0 0 1,1a3,3 0 0 0 1.48,0.36a2.75,2.75 0 0 0 1.5,-0.39a2.86,2.86 0 0 0 0.94,-1l1.38,0a4,4 0 0 1 -1.39,1.84a3.94,3.94 0 0 1 -2.43,0.68zm-3,-5l5.73,0a3.11,3.11 0 0 0 -0.91,-1.81a3,3 0 0 0 -3.9,0a3.31,3.31 0 0 0 -0.87,1.79l-0.05,0.02z" class="cls-3"/>
  <path fill="#fff" d="m393.93542,72.79524a3.93,3.93 0 0 1 -2.15,-0.58a4,4 0 0 1 -1.42,-1.58a5,5 0 0 1 0,-4.39a3.89,3.89 0 0 1 3.57,-2.15a3.74,3.74 0 0 1 1.8,0.41a3.46,3.46 0 0 1 1.22,1.09l0,-4.73l1.26,0l0,11.79l-1.26,0l0,-1.34a3.5,3.5 0 0 1 -1.22,1.07a3.74,3.74 0 0 1 -1.8,0.41zm0.17,-1.15a2.71,2.71 0 0 0 1.59,-0.44a2.83,2.83 0 0 0 1,-1.17a3.91,3.91 0 0 0 0,-3.19a2.87,2.87 0 0 0 -1,-1.16a2.78,2.78 0 0 0 -1.59,-0.44a2.82,2.82 0 0 0 -2.63,1.6a3.81,3.81 0 0 0 0,3.19a2.85,2.85 0 0 0 1,1.17a2.8,2.8 0 0 0 1.63,0.44z" class="cls-3"/>
 </g>

</svg>