<svg width="295" height="56" xmlns="http://www.w3.org/2000/svg" data-name="Layer 1">
 <g id="Layer_1">
  <title>Layer 1</title>
  <g>

   <path fill="#0e2130" d="m0.07,31.37018l0,-31l13.9,0a11.21,11.21 0 0 1 5.78,1.27a7.53,7.53 0 0 1 3.07,3.15a8.43,8.43 0 0 1 0.94,3.77a7.27,7.27 0 0 1 -1.27,4.61a7.8,7.8 0 0 1 -2.87,2.38a10.28,10.28 0 0 1 2.65,1.33a7.35,7.35 0 0 1 2.22,2.46a7.75,7.75 0 0 1 0.89,3.89a7.41,7.41 0 0 1 -2.68,5.78q-2.64,2.34 -7.93,2.34l-14.7,0.02zm3.55,-17.13l10.35,0a8.37,8.37 0 0 0 3.07,-0.56a5.28,5.28 0 0 0 2.32,-1.76a5,5 0 0 0 0.89,-3.07a5.49,5.49 0 0 0 -0.63,-2.48a4.59,4.59 0 0 0 -1.87,-1.92a6.94,6.94 0 0 0 -3.44,-0.75l-10.69,0l0,10.54zm0,13.77l11.52,0a8,8 0 0 0 4.94,-1.34a4.46,4.46 0 0 0 1.76,-3.77a5.25,5.25 0 0 0 -1.69,-3.86c-1.12,-1.1 -2.92,-1.66 -5.38,-1.66l-11.15,0l0,10.63z" class="cls-1"/>
   <path fill="#0e2130" d="m37.99,31.37018l0,-31l14.84,0a10.76,10.76 0 0 1 7.6,2.62a9.18,9.18 0 0 1 2.84,7.07a8.78,8.78 0 0 1 -1.15,4.78a7.63,7.63 0 0 1 -2.88,2.69a14.92,14.92 0 0 1 -3.46,1.33l8.14,12.5l-4.16,0l-7.49,-11.89l-10.77,0l0,11.9l-3.51,0zm3.51,-15.21l10.72,0a11.79,11.79 0 0 0 3.42,-0.52a6.18,6.18 0 0 0 2.92,-1.85a5.37,5.37 0 0 0 1.2,-3.72a5.8,5.8 0 0 0 -2,-4.66a8,8 0 0 0 -5.33,-1.71l-10.93,0l0,12.46z" class="cls-1"/>
   <path fill="#0e2130" d="m76.23,31.37018l0,-31l22.8,0l0,3.37l-19.29,0l0,10.4l17.23,0l0,3.42l-17.23,0l0,10.45l19.29,0l0,3.37l-22.8,-0.01z" class="cls-1"/>
   <path fill="#0e2130" d="m117.9,31.37018l-9.65,-31l3.7,0l8,26l8.33,-26l4,0l8.33,26l8,-26l3.7,0l-9.65,31l-4,0l-8.38,-26l-8.38,26l-4,0z" class="cls-1"/>
   <path fill="#0e2130" d="m163.4,31.37018l0,-31l3.51,0l0,27.64l16.9,0l0,3.37l-20.41,-0.01z" class="cls-1"/>
   <path fill="#0e2130" d="m191.62,31.37018l13.15,-31l4.4,0l13.16,31l-3.89,0l-3.79,-9l-15.35,0l-3.79,9l-3.89,0zm9,-12.22l12.64,0l-6.28,-15.14l-6.36,15.14z" class="cls-1"/>
   <path fill="#0e2130" d="m233.2,31.37018l0,-31l13.9,0a11.23,11.23 0 0 1 5.78,1.27a7.66,7.66 0 0 1 3.07,3.15a8.55,8.55 0 0 1 0.93,3.77a7.33,7.33 0 0 1 -1.26,4.62a7.8,7.8 0 0 1 -2.9,2.37a10.23,10.23 0 0 1 2.64,1.33a7.48,7.48 0 0 1 2.26,2.46a7.75,7.75 0 0 1 0.89,3.89a7.45,7.45 0 0 1 -2.65,5.8c-1.76,1.56 -4.41,2.34 -7.93,2.34l-14.73,0zm3.51,-17.13l10.39,0a8.45,8.45 0 0 0 3.07,-0.56a5.19,5.19 0 0 0 2.31,-1.76a5,5 0 0 0 0.89,-3.07a5.48,5.48 0 0 0 -0.58,-2.48a4.66,4.66 0 0 0 -1.87,-1.92a7,7 0 0 0 -3.45,-0.75l-10.76,0l0,10.54zm0,13.81l11.56,0a8,8 0 0 0 4.94,-1.34a4.45,4.45 0 0 0 1.75,-3.77a5.28,5.28 0 0 0 -1.68,-3.86c-1.12,-1.1 -2.92,-1.66 -5.38,-1.66l-11.19,0l0,10.63z" class="cls-1"/>
   <path fill="#0e2130" d="m282.21,31.75018a19,19 0 0 1 -7.44,-1.24a9.37,9.37 0 0 1 -4.29,-3.45a10.65,10.65 0 0 1 -1.66,-5l3.65,0a5.47,5.47 0 0 0 1.5,3.63a8.15,8.15 0 0 0 3.58,2a17.48,17.48 0 0 0 4.89,0.65a12,12 0 0 0 6.23,-1.33a4.49,4.49 0 0 0 2.29,-4.1a3.35,3.35 0 0 0 -1.14,-2.64a9.15,9.15 0 0 0 -3.05,-1.66a43.08,43.08 0 0 0 -4.14,-1.2c-1.5,-0.35 -3,-0.74 -4.52,-1.14a22.43,22.43 0 0 1 -4.16,-1.55a8.6,8.6 0 0 1 -3.05,-2.41a6,6 0 0 1 -1.14,-3.77a7.63,7.63 0 0 1 2.92,-6.18q2.94,-2.35 8.73,-2.35a16.09,16.09 0 0 1 6.79,1.24a9.33,9.33 0 0 1 4,3.25a8.75,8.75 0 0 1 1.48,4.35l-3.61,0a5.74,5.74 0 0 0 -2.34,-3.95q-2.06,-1.62 -6.32,-1.62a14.66,14.66 0 0 0 -4.26,0.52a6.45,6.45 0 0 0 -2.5,1.33a4.3,4.3 0 0 0 -1.17,1.71a5.32,5.32 0 0 0 -0.31,1.69a3.12,3.12 0 0 0 1.15,2.48a9.33,9.33 0 0 0 3,1.59a43.07,43.07 0 0 0 4.19,1.15c1.53,0.34 3.05,0.73 4.57,1.15a22.47,22.47 0 0 1 4.16,1.59a8.72,8.72 0 0 1 3,2.46a6.12,6.12 0 0 1 1.14,3.83a7.64,7.64 0 0 1 -3.27,6.63c-2.1,1.6 -5.09,2.34 -8.9,2.34z" class="cls-1"/>
   <path fill="#0e2130" d="m0,52.81018l0,-12l1.36,0l0,12l-1.36,0z" class="cls-1"/>
   <path fill="#0e2130" d="m4.05,52.81018l0,-9l1.36,0l0,1.41a4.67,4.67 0 0 1 1.2,-1.1a3.3,3.3 0 0 1 1.81,-0.46a3.63,3.63 0 0 1 1.76,0.45a3.33,3.33 0 0 1 1.34,1.32a4.26,4.26 0 0 1 0.52,2.16l0,5.22l-1.36,0l0,-5.23a2.78,2.78 0 0 0 -0.71,-2a2.4,2.4 0 0 0 -1.83,-0.76a2.76,2.76 0 0 0 -1.37,0.35a2.63,2.63 0 0 0 -1,1a2.8,2.8 0 0 0 -0.37,1.44l0,5.2l-1.35,0z" class="cls-1"/>
   <path fill="#0e2130" d="m14.97,52.81018l0,-7.86l-1.56,0l0,-1.19l1.56,0l0,-0.75a2.72,2.72 0 0 1 0.89,-2.22a3.73,3.73 0 0 1 2.46,-0.78l0.11,0l0,1.29l-0.19,0a2.11,2.11 0 0 0 -1.42,0.42a1.72,1.72 0 0 0 -0.49,1.37l0,0.69l2.1,0l0,1.19l-2.1,0l0,7.84l-1.36,0z" class="cls-1"/>
   <path fill="#0e2130" d="m23.71,52.95018a4.43,4.43 0 0 1 -2.39,-0.62a4.21,4.21 0 0 1 -1.55,-1.69a5.34,5.34 0 0 1 0,-4.72a4.25,4.25 0 0 1 1.55,-1.68a4.87,4.87 0 0 1 4.79,0a4.25,4.25 0 0 1 1.51,1.68a5.43,5.43 0 0 1 0,4.72a4.21,4.21 0 0 1 -1.55,1.69a4.42,4.42 0 0 1 -2.36,0.62zm0,-1.23a2.88,2.88 0 0 0 2.77,-1.71a4,4 0 0 0 0.36,-1.71a4.08,4.08 0 0 0 -0.36,-1.72a3,3 0 0 0 -1.06,-1.24a2.92,2.92 0 0 0 -1.71,-0.48a3,3 0 0 0 -1.7,0.48a3,3 0 0 0 -1.07,1.24a4.08,4.08 0 0 0 -0.32,1.7a4,4 0 0 0 0.32,1.73a2.9,2.9 0 0 0 2.77,1.73l0,-0.02z" class="cls-1"/>
   <path fill="#0e2130" d="m30.05,52.81018l0,-9l1.35,0l0,2.2a4.79,4.79 0 0 1 0.28,-0.63a3.74,3.74 0 0 1 0.61,-0.79a3.64,3.64 0 0 1 1,-0.68a3.47,3.47 0 0 1 1.43,-0.28l0.09,0l0,1.38l-0.19,0a2.84,2.84 0 0 0 -1.74,0.55a3.62,3.62 0 0 0 -1.13,1.43a4.59,4.59 0 0 0 -0.39,1.88l0,4l-1.31,-0.06z" class="cls-1"/>
   <path fill="#0e2130" d="m36.35,52.81018l0,-9l1.35,0l0,1.37a3.48,3.48 0 0 1 1,-1a3,3 0 0 1 1.77,-0.49a3.1,3.1 0 0 1 1.68,0.48a3.29,3.29 0 0 1 1.2,1.35a5.12,5.12 0 0 1 0.57,-0.74a3.57,3.57 0 0 1 1,-0.76a3.29,3.29 0 0 1 1.53,-0.33a3.13,3.13 0 0 1 1.62,0.46a3.42,3.42 0 0 1 1.24,1.29a3.92,3.92 0 0 1 0.48,2l0,5.37l-1.35,0l0,-5.43a2.62,2.62 0 0 0 -0.65,-1.84a2.09,2.09 0 0 0 -1.6,-0.7a2.46,2.46 0 0 0 -1.72,0.68a2.43,2.43 0 0 0 -0.72,1.88l0,5.41l-1.36,0l0,-5.43a2.61,2.61 0 0 0 -0.64,-1.84a2.11,2.11 0 0 0 -1.6,-0.7a2.43,2.43 0 0 0 -1.72,0.68a2.4,2.4 0 0 0 -0.73,1.88l0,5.41l-1.35,0z" class="cls-1"/>
   <path fill="#0e2130" d="m55.93,52.95018a4.13,4.13 0 0 1 -3.84,-2.31a5.43,5.43 0 0 1 0,-4.72a4.27,4.27 0 0 1 1.53,-1.68a4.21,4.21 0 0 1 2.31,-0.63a4,4 0 0 1 1.93,0.44a3.71,3.71 0 0 1 1.31,1.18l0,-1.47l1.36,0l0,9l-1.36,0l0,-1.4a3.86,3.86 0 0 1 -1.31,1.16a4,4 0 0 1 -1.93,0.43zm0.18,-1.23a2.88,2.88 0 0 0 2.77,-1.71a4,4 0 0 0 0.36,-1.71a4.08,4.08 0 0 0 -0.36,-1.72a3,3 0 0 0 -1.06,-1.24a2.92,2.92 0 0 0 -1.71,-0.48a3,3 0 0 0 -2.82,1.72a3.81,3.81 0 0 0 -0.38,1.72a3.76,3.76 0 0 0 0.38,1.71a3,3 0 0 0 1.1,1.26a3,3 0 0 0 1.72,0.45z" class="cls-1"/>
   <path fill="#0e2130" d="m63.91,52.81018l0,-7.86l-1.84,0l0,-1.19l1.84,0l0,-3.24l1.36,0l0,3.24l2.08,0l0,1.19l-2.08,0l0,7.86l-1.36,0z" class="cls-1"/>
   <path fill="#0e2130" d="m68.84,42.24018l0,-1.77l1.46,0l0,1.77l-1.46,0zm0,10.57l0,-9l1.36,0l0,9l-1.36,0z" class="cls-1"/>
   <path fill="#0e2130" d="m75.12,52.81018l-3.55,-9l1.48,0l2.86,7.6l2.84,-7.6l1.49,0l-3.53,9l-1.59,0z" class="cls-1"/>
   <path fill="#0e2130" d="m85.4,52.95018a4.53,4.53 0 0 1 -2.41,-0.62a4.33,4.33 0 0 1 -1.6,-1.69a4.93,4.93 0 0 1 -0.57,-2.36a5.15,5.15 0 0 1 0.54,-2.36a4.2,4.2 0 0 1 1.56,-1.68a4.87,4.87 0 0 1 4.79,0a4.3,4.3 0 0 1 1.54,1.68a5,5 0 0 1 0.55,2.36l0,0.55l-7.59,0a3.66,3.66 0 0 0 0.52,1.45a2.89,2.89 0 0 0 1.09,1a3.19,3.19 0 0 0 1.6,0.39a3,3 0 0 0 1.61,-0.42a3,3 0 0 0 1,-1.1l1.48,0a4.47,4.47 0 0 1 -1.49,2a4.27,4.27 0 0 1 -2.62,0.8zm-3.17,-5.39l6.15,0a3.37,3.37 0 0 0 -1,-1.94a2.91,2.91 0 0 0 -2.1,-0.78a2.87,2.87 0 0 0 -2.09,0.78a3.45,3.45 0 0 0 -0.96,1.94z" class="cls-1"/>
   <path fill="#0e2130" d="m98.68,52.81018l0,-10.7l-4.18,0l0,-1.28l9.72,0l0,1.28l-4.18,0l0,10.7l-1.36,0z" class="cls-1"/>
   <path fill="#0e2130" d="m104.48,52.81018l0,-9l1.35,0l0,2.2a3.74,3.74 0 0 1 0.28,-0.63a3.43,3.43 0 0 1 0.61,-0.79a3.74,3.74 0 0 1 1,-0.68a3.56,3.56 0 0 1 1.44,-0.28l0.09,0l0,1.38l-0.16,0a2.87,2.87 0 0 0 -1.75,0.55a3.69,3.69 0 0 0 -1.12,1.43a4.59,4.59 0 0 0 -0.39,1.88l0,4l-1.35,-0.06z" class="cls-1"/>
   <path fill="#0e2130" d="m114.3,52.95018a3.61,3.61 0 0 1 -1.75,-0.44a3.36,3.36 0 0 1 -1.35,-1.32a4.26,4.26 0 0 1 -0.52,-2.16l0,-5.27l1.36,0l0,5.25a2.74,2.74 0 0 0 0.72,2a2.39,2.39 0 0 0 1.82,0.75a2.66,2.66 0 0 0 1.37,-0.35a2.71,2.71 0 0 0 1,-1a2.77,2.77 0 0 0 0.37,-1.43l0,-5.22l1.36,0l0,9l-1.36,0l0,-1.36a4.67,4.67 0 0 1 -1.2,1.1a3.3,3.3 0 0 1 -1.82,0.45z" class="cls-1"/>
   <path fill="#0e2130" d="m124.37,52.95018a4.78,4.78 0 0 1 -2.11,-0.41a3.26,3.26 0 0 1 -1.31,-1.1a2.92,2.92 0 0 1 -0.51,-1.47l1.41,0a2.19,2.19 0 0 0 0.32,0.88a1.81,1.81 0 0 0 0.8,0.68a3.24,3.24 0 0 0 1.42,0.27a4.7,4.7 0 0 0 0.67,-0.06a2.84,2.84 0 0 0 0.76,-0.2a1.54,1.54 0 0 0 0.63,-0.43a1.07,1.07 0 0 0 0.25,-0.74a1,1 0 0 0 -0.43,-0.87a3.21,3.21 0 0 0 -1.12,-0.48c-0.46,-0.12 -0.95,-0.23 -1.46,-0.34a10.77,10.77 0 0 1 -1.46,-0.42a2.89,2.89 0 0 1 -1.12,-0.74a1.89,1.89 0 0 1 -0.43,-1.32a2.26,2.26 0 0 1 0.89,-1.91a4.37,4.37 0 0 1 2.65,-0.68a4.52,4.52 0 0 1 2,0.37a2.87,2.87 0 0 1 1.14,1a2.72,2.72 0 0 1 0.46,1.24l-1.37,0a1.51,1.51 0 0 0 -0.58,-1a2.51,2.51 0 0 0 -1.63,-0.42c-1.44,0 -2.16,0.44 -2.16,1.31a0.94,0.94 0 0 0 0.44,0.83a3.53,3.53 0 0 0 1.12,0.46l1.46,0.33a8.39,8.39 0 0 1 1.45,0.42a2.88,2.88 0 0 1 1.13,0.77a2,2 0 0 1 0.43,1.35a2.33,2.33 0 0 1 -1,2a4.68,4.68 0 0 1 -2.74,0.68z" class="cls-1"/>
   <path fill="#0e2130" d="m130.83,52.81018l0,-7.86l-1.85,0l0,-1.19l1.85,0l0,-3.24l1.36,0l0,3.24l2.08,0l0,1.19l-2.08,0l0,7.86l-1.36,0z" class="cls-1"/>
   <path fill="#0e2130" d="m137.56,52.81018l-2.84,-9l1.45,0l2.17,7.37l2.3,-7.37l1.48,0l2.3,7.37l2.2,-7.42l1.45,0l-2.84,9l-1.61,0l-2.26,-7.22l-2.24,7.27l-1.56,0z" class="cls-1"/>
   <path fill="#0e2130" d="m153.11,52.95018a4.43,4.43 0 0 1 -2.39,-0.62a4.21,4.21 0 0 1 -1.55,-1.69a5.34,5.34 0 0 1 0,-4.72a4.25,4.25 0 0 1 1.55,-1.68a4.87,4.87 0 0 1 4.79,0a4.32,4.32 0 0 1 1.55,1.68a5.43,5.43 0 0 1 0,4.72a4.28,4.28 0 0 1 -1.55,1.69a4.42,4.42 0 0 1 -2.4,0.62zm0,-1.23a2.88,2.88 0 0 0 2.77,-1.71a4,4 0 0 0 0.36,-1.71a4.08,4.08 0 0 0 -0.36,-1.72a3,3 0 0 0 -1.06,-1.24a2.92,2.92 0 0 0 -1.71,-0.48a3,3 0 0 0 -1.7,0.48a3,3 0 0 0 -1.07,1.24a4.08,4.08 0 0 0 -0.36,1.72a4,4 0 0 0 0.36,1.71a2.9,2.9 0 0 0 2.77,1.73l0,-0.02z" class="cls-1"/>
   <path fill="#0e2130" d="m159.45,52.81018l0,-9l1.35,0l0,2.2a4.79,4.79 0 0 1 0.28,-0.63a3.74,3.74 0 0 1 0.61,-0.79a3.64,3.64 0 0 1 1,-0.68a3.47,3.47 0 0 1 1.43,-0.28l0.09,0l0,1.38l-0.16,0a2.9,2.9 0 0 0 -1.75,0.55a3.69,3.69 0 0 0 -1.12,1.43a4.59,4.59 0 0 0 -0.39,1.88l0,4l-1.34,-0.06z" class="cls-1"/>
   <path fill="#0e2130" d="m166.72,52.81018l0,-7.86l-1.84,0l0,-1.19l1.84,0l0,-3.24l1.36,0l0,3.24l2.08,0l0,1.19l-2.08,0l0,7.86l-1.36,0z" class="cls-1"/>
   <path fill="#0e2130" d="m171.7,52.81018l0,-12.67l1.36,0l0,5a4.47,4.47 0 0 1 1.19,-1.1a3.33,3.33 0 0 1 1.81,-0.46a3.64,3.64 0 0 1 1.77,0.45a3.39,3.39 0 0 1 1.34,1.32a4.26,4.26 0 0 1 0.51,2.16l0,5.3l-1.35,0l0,-5.23a2.78,2.78 0 0 0 -0.71,-2a2.4,2.4 0 0 0 -1.83,-0.76a2.74,2.74 0 0 0 -1.37,0.35a2.56,2.56 0 0 0 -1,1a2.71,2.71 0 0 0 -0.37,1.44l0,5.2l-1.35,0z" class="cls-1"/>
   <path fill="#0e2130" d="m182.71,56.39018l1.64,-3.71l-3.73,-8.92l1.5,0l2.92,7.42l3,-7.42l1.48,0l-5.36,12.63l-1.45,0z" class="cls-1"/>
   <path fill="#0e2130" d="m195.01,52.81018l0,-12l8.82,0l0,1.3l-7.46,0l0,4l6.66,0l0,1.32l-6.66,0l0,4l7.46,0l0,1.3l-8.82,0.08z" class="cls-1"/>
   <path fill="#0e2130" d="m204.68,52.81018l3.49,-4.67l-3.27,-4.38l1.72,0l2.34,3.42l2.31,-3.42l1.74,0l-3.27,4.38l3.51,4.67l-1.73,0l-2.55,-3.69l-2.57,3.69l-1.72,0z" class="cls-1"/>
   <path fill="#0e2130" d="m214.56,56.39018l0,-12.63l1.36,0l0,1.45a3.51,3.51 0 0 1 1.31,-1.2a4.13,4.13 0 0 1 1.93,-0.43a4.21,4.21 0 0 1 2.31,0.63a4.43,4.43 0 0 1 1.53,1.68a5.43,5.43 0 0 1 0,4.72a4.38,4.38 0 0 1 -1.53,1.69a4.2,4.2 0 0 1 -2.31,0.62a3.9,3.9 0 0 1 -1.93,-0.44a3.79,3.79 0 0 1 -1.31,-1.17l0,5l-1.36,0.08zm4.42,-4.67a3,3 0 0 0 2.82,-1.71a3.76,3.76 0 0 0 0.38,-1.71a3.81,3.81 0 0 0 -0.38,-1.72a3.11,3.11 0 0 0 -1.09,-1.24a3.05,3.05 0 0 0 -1.73,-0.48a2.93,2.93 0 0 0 -1.7,0.48a3,3 0 0 0 -1.07,1.24a4.08,4.08 0 0 0 -0.36,1.72a4,4 0 0 0 0.36,1.71a2.9,2.9 0 0 0 2.77,1.73l0,-0.02z" class="cls-1"/>
   <path fill="#0e2130" d="m229.4,52.95018a4.49,4.49 0 0 1 -2.4,-0.62a4.36,4.36 0 0 1 -1.61,-1.69a4.93,4.93 0 0 1 -0.57,-2.36a5,5 0 0 1 0.55,-2.36a4.25,4.25 0 0 1 1.55,-1.68a4.87,4.87 0 0 1 4.79,0a4.25,4.25 0 0 1 1.55,1.68a5.15,5.15 0 0 1 0.54,2.36l0,0.55l-7.58,0a3.64,3.64 0 0 0 0.51,1.45a2.92,2.92 0 0 0 1.1,1a3.18,3.18 0 0 0 1.59,0.39a2.9,2.9 0 0 0 1.61,-0.42a3,3 0 0 0 1,-1.1l1.48,0a4.47,4.47 0 0 1 -1.49,2a4.28,4.28 0 0 1 -2.62,0.8zm-3.16,-5.39l6.15,0a3.38,3.38 0 0 0 -1,-1.94a3.2,3.2 0 0 0 -4.19,0a3.5,3.5 0 0 0 -0.96,1.94z" class="cls-1"/>
   <path fill="#0e2130" d="m235.52,52.81018l0,-9l1.36,0l0,2.2a3.74,3.74 0 0 1 0.28,-0.63a3.43,3.43 0 0 1 0.61,-0.79a3.59,3.59 0 0 1 1,-0.68a3.49,3.49 0 0 1 1.44,-0.28l0.09,0l0,1.38l-0.16,0a2.87,2.87 0 0 0 -1.75,0.55a3.6,3.6 0 0 0 -1.12,1.43a4.59,4.59 0 0 0 -0.39,1.88l0,4l-1.36,-0.06z" class="cls-1"/>
   <path fill="#0e2130" d="m241.77,42.24018l0,-1.77l1.46,0l0,1.77l-1.46,0zm0.05,10.57l0,-9l1.36,0l0,9l-1.36,0z" class="cls-1"/>
   <path fill="#0e2130" d="m249.62,52.95018a4.49,4.49 0 0 1 -2.4,-0.62a4.36,4.36 0 0 1 -1.6,-1.69a4.93,4.93 0 0 1 -0.57,-2.36a5,5 0 0 1 0.55,-2.36a4.25,4.25 0 0 1 1.55,-1.68a4.87,4.87 0 0 1 4.79,0a4.25,4.25 0 0 1 1.55,1.68a5.15,5.15 0 0 1 0.54,2.36l0,0.55l-7.61,0a3.64,3.64 0 0 0 0.51,1.45a2.92,2.92 0 0 0 1.1,1a3.18,3.18 0 0 0 1.59,0.39a2.9,2.9 0 0 0 1.61,-0.42a3.07,3.07 0 0 0 1,-1.1l1.48,0a4.47,4.47 0 0 1 -1.49,2a4.3,4.3 0 0 1 -2.6,0.8zm-3.16,-5.39l6.16,0a3.38,3.38 0 0 0 -1,-1.94a3.2,3.2 0 0 0 -4.19,0a3.5,3.5 0 0 0 -0.99,1.94l0.02,0z" class="cls-1"/>
   <path fill="#0e2130" d="m255.72,52.81018l0,-9l1.36,0l0,1.41a4.47,4.47 0 0 1 1.19,-1.1a3.33,3.33 0 0 1 1.81,-0.46a3.64,3.64 0 0 1 1.77,0.45a3.39,3.39 0 0 1 1.34,1.32a4.26,4.26 0 0 1 0.51,2.16l0,5.22l-1.35,0l0,-5.23a2.78,2.78 0 0 0 -0.71,-2a2.4,2.4 0 0 0 -1.83,-0.76a2.76,2.76 0 0 0 -1.37,0.35a2.63,2.63 0 0 0 -1,1a2.71,2.71 0 0 0 -0.37,1.44l0,5.2l-1.35,0z" class="cls-1"/>
   <path fill="#0e2130" d="m269.91,52.95018a4.29,4.29 0 0 1 -2.35,-0.62a4.35,4.35 0 0 1 -1.55,-1.69a5.34,5.34 0 0 1 0,-4.72a4.4,4.4 0 0 1 1.55,-1.68a4.3,4.3 0 0 1 2.35,-0.63a4.44,4.44 0 0 1 2.74,0.84a4,4 0 0 1 1.53,2.15l-1.46,0a2.88,2.88 0 0 0 -1,-1.27a2.77,2.77 0 0 0 -1.64,-0.49a3.17,3.17 0 0 0 -2.87,1.72a3.69,3.69 0 0 0 -0.4,1.72a3.65,3.65 0 0 0 0.4,1.71a3,3 0 0 0 1.14,1.26a3.09,3.09 0 0 0 1.73,0.47a2.7,2.7 0 0 0 1.64,-0.49a2.8,2.8 0 0 0 1,-1.26l1.46,0a4,4 0 0 1 -1.56,2.15a4.44,4.44 0 0 1 -2.71,0.83z" class="cls-1"/>
   <path fill="#0e2130" d="m279.94,52.95018a4.53,4.53 0 0 1 -2.41,-0.62a4.41,4.41 0 0 1 -1.6,-1.69a4.93,4.93 0 0 1 -0.57,-2.36a5.15,5.15 0 0 1 0.54,-2.36a4.27,4.27 0 0 1 1.56,-1.68a4.87,4.87 0 0 1 4.79,0a4.32,4.32 0 0 1 1.55,1.68a5.15,5.15 0 0 1 0.54,2.36l0,0.55l-7.59,0a3.82,3.82 0 0 0 0.52,1.45a2.92,2.92 0 0 0 1.1,1a3.12,3.12 0 0 0 1.59,0.39a2.92,2.92 0 0 0 1.61,-0.42a3,3 0 0 0 1,-1.1l1.49,0a4.49,4.49 0 0 1 -1.5,2a4.27,4.27 0 0 1 -2.62,0.8zm-3.17,-5.39l6.16,0a3.38,3.38 0 0 0 -1,-1.94a2.91,2.91 0 0 0 -2.1,-0.78a2.87,2.87 0 0 0 -2.09,0.78a3.45,3.45 0 0 0 -0.97,1.94z" class="cls-1"/>
   <path fill="#0e2130" d="m289.88,52.95018a4.13,4.13 0 0 1 -3.84,-2.31a5.43,5.43 0 0 1 0,-4.72a4.27,4.27 0 0 1 1.58,-1.68a4.21,4.21 0 0 1 2.31,-0.63a4,4 0 0 1 1.92,0.44a3.66,3.66 0 0 1 1.32,1.18l0,-5.09l1.35,0l0,12.67l-1.4,0l0,-1.45a3.8,3.8 0 0 1 -1.32,1.16a4,4 0 0 1 -1.92,0.43zm0.18,-1.23a2.88,2.88 0 0 0 2.77,-1.71a4,4 0 0 0 0.36,-1.71a4.08,4.08 0 0 0 -0.36,-1.72a3,3 0 0 0 -1.06,-1.24a3,3 0 0 0 -1.71,-0.48a3,3 0 0 0 -1.72,0.48a3.16,3.16 0 0 0 -1.11,1.24a3.94,3.94 0 0 0 -0.38,1.72a3.9,3.9 0 0 0 0.38,1.71a3.08,3.08 0 0 0 1.11,1.26a3,3 0 0 0 1.72,0.45z" class="cls-1"/>
  </g>
 </g>

</svg>